<svg xmlns="http://www.w3.org/2000/svg" xmlns:xlink="http://www.w3.org/1999/xlink" viewBox="0 0 236 236">
  <defs>
    <style>
      .cls-1 {
        isolation: isolate;
      }

      .cls-2 {
        opacity: 0;
        mix-blend-mode: multiply;
      }

      .cls-3 {
        fill: #f2ede6;
      }

      .cls-4 {
        fill: none;
        stroke: #a35b41;
        stroke-miterlimit: 10;
        stroke-width: 7px;
      }

      .cls-5 {
        fill: #a35b41;
      }
    </style>
  </defs>
  <title>stonebreaker v0</title>
  <g class="cls-1">
    <g id="Layer_1" data-name="Layer 1">
      <g>
        <g>
          <g>
            <circle class="cls-3" cx="118.45" cy="118.48" r="113.22"/>
            <circle class="cls-4" cx="118.45" cy="118.48" r="113.22"/>
          </g>
        </g>
        <g>
          <g>
            <path class="cls-5" d="M99.29,231l.54-33.23-1.22-24.08-.33-13.22.77-16.12,1.59-10,8.23-29,7.48-20-.06-.71.65-5.94-.32-.77-1-2.83-1.08-4.72.81-3.91-1-3.26,1.73-1.94,3.71,2,.54,3.44,4.46-4.12.81.07,1.21,4.25.54-.07L126.74,71l-1.14,2.5-2.43,3.24-2.7,3.1-.74,4.25,1.48.54,2.63-2.9,2.23-6.14L130,71.87l2.23.34,2.29.2.34,1.82-1,2.84,2.77-.48.94.14L136.86,79l-.67,1.29-4,3-3.17.81H125.6L124.52,84l-1.42,2.36,1.21,1.56,1,2.36.07,3.37-.68.34,3.31.47,3-.34h3.51l2.36.07,2.36,2-2,2.16-.54,5.26-2.63,3-4.32-2-2.36-2.22-2.09-3.11L122.42,96l-2-1.62-5.19,5.2-3.92,10.18-5.53,17.81-2.09,10.8-1.41,11.46-.41,9.24,3.51-3.44,3.84-6,1.56-3.64.47-7.76,1.21-4.92,2.23-6.82,3.77-3.37,6.55,2.5,1.48,1.82-.07,4.31-1.48,3.24-4.59,4.52-3.1,3-2.9,2-2.56,5.87-2.3,3.51-3.5,4.59-2.7,3.23-.11,1.51c0,.16-.54,7.91-.55,8.06L103,181l.6,10.25.07,8.16.14,10.53-.14,8.16-.47,7.49L103,231Z"/>
            <path class="cls-5" d="M73.65,94.67c-1.21-1.41-2-3.09-.28-4.59A5.4,5.4,0,0,1,76.67,89c1.17,0,2.35.11,3.53.06,1.76-.06,3.49-.56,5.24-.54,4,.06,7,2.85,10.07,5.14L97.94,97l1.21,3.51.54,1.49.68-5.6,2.56-4.72,4.59-4.12,4.85-.27V88l-1.08.81,1.08.07,6.34-4.25,3.78-2.43h1.82l-.47,1-2.49,4.66-2.64,1.68-3.3,2.84,5.53-2.23,2.5-.67.87.67-.4,1.62L122,93.59l-9.65,7.62-5.12,3.31-5.74,1.15,4.46-.07,4.45.94L115,108.3l8,5.26,6,4.92,1.62,2.63-1.69.14L124.58,119l-5.87-3.58,4.12,4,2.36,4,.41,8.36-1.08,1.08-3-1.15-2.43-4.25-1.42-2.69L112.78,120v2.29l.88,1.15-.75,1.14-.33.81.33,3.38-.54,1.55L111,132l-.81-.94-1.35-2.83L107,125.36l-2.16-2.9-.68,1.55.27,3.17-.6,2.3-1.08,2.29c-1.12,1.12-3.09,4-4.9,3.63-.93-.19-1.48-1.13-1.92-2l-1.33-2.61a5.83,5.83,0,0,1-.46-1.1,5.33,5.33,0,0,1-.12-1.38,35.83,35.83,0,0,1,.7-6.69l-2.09.34-1.89.61c-.67.21-1.06-.5-1.7-.51a1.1,1.1,0,0,0-.68.24l-3.94,2.73a9.05,9.05,0,0,1-3.66,1.81,2.19,2.19,0,0,1-.62-2.09,5.62,5.62,0,0,1,1-2.06c.92-1.38,2-2.59,3-3.9h-.74L81,120.1l-3.31,1.35-3.64.41-2.43-.34a5.74,5.74,0,0,1-3.17-3l.34-1.15L70.89,116l7.49-3.24,1.41-1H73.92a14.44,14.44,0,0,0-2.9.71c-.67.16-2.66,1-3.25.59-1.43-.87.26-3.5,1.07-4.13A9.71,9.71,0,0,1,73,107.4c4-.76,8-1.4,12-2,3.09-.42,6.29-.78,9.3,0,.16,0,1.08-1,1.2-1.16H88.22l-4.11-.88-2.8-1.55-3-2"/>
            <path class="cls-5" d="M136.19,95.75l.54-9.38,1-.6,1.08.81.33,1.75,3.11-4.72.33.27v5c2.35-4.27,4.5-8.67,7.36-12.62a64.39,64.39,0,0,0,5.65-9.44c1.15,2.43.49,5.31-.51,7.8s-2.3,4.94-2.44,7.62a26.82,26.82,0,0,1,6.94-5.31,14.12,14.12,0,0,1-2.77,7c-.71,1.06-1.73,1.69-.31,2.23.55.22,1.45.12,1.94.45l1.75,1.15V89a5.88,5.88,0,0,1-1.43,1.92,5.66,5.66,0,0,1-2.87.88,14.49,14.49,0,0,0-6.16,2.47c.11.72.8,1.18,1.42,1.55a23.17,23.17,0,0,0,5.69,2.75c2,.55,4.16.53,6.22.94s4.17,1.35,5.17,3.2c-3,2.15-6.94,2.12-10.61,2a39.94,39.94,0,0,1,7.14,2.22,13.32,13.32,0,0,1,5.75,4.65,2.8,2.8,0,0,1,.56,1.6,2.74,2.74,0,0,1-1.83,2.06,11.25,11.25,0,0,1-7.25.46,29.2,29.2,0,0,1-6.8-2.86,61.54,61.54,0,0,0,9.06,6.29c-.21,1.16-1.65,1.6-2.83,1.58-3.64-.06-6.9-2.16-9.92-4.19-3.32-2.22-6.78-4.61-8.54-8.19a5.54,5.54,0,0,0,.95,3.5,93.79,93.79,0,0,0,8.5,13.1c1.27,1.65,2.68,3.65,2,5.62-1.59,0-3-1-4.15-2.07a33.81,33.81,0,0,1-5.3-6.21q3.72,7.44,7.26,15l-.65.57c-4.35-1.08-7.54-4.9-9.42-9s-2.76-8.53-4.38-12.71c.5,3.14.94,6.3,1.34,9.46.11.93.11,2.1-.73,2.54a52.4,52.4,0,0,1-5-10.28,13.83,13.83,0,0,1-.63-5.16v-4.92l1.48-3.64,1.35-1.29Z"/>
            <path class="cls-5" d="M115.81,107.69l2.37-2.09,1.07-.34,1.56,3.48.81,2.32,1.41.81h2.57l1.21-1.14,1.69,1.68,2.09,3.11,1.75,1.88L148,83.81l-6.31-2.09-4.38.47h-2.91l-6.88,3.24-2.29,2.43-.88-1,2.2-4.11c-1.51-.06-2.57,1.77-4.07,1.71-2.3-.08-5.3.4-7.14-1.19-.81-.7-1.46-1.58-2.27-2.29a13.19,13.19,0,0,0-3.9-2.17,62.09,62.09,0,0,0-15-4c-.86-.12-2,0-2.13.88l-1.52.26v.75a9.55,9.55,0,0,1,4,1.86,4.53,4.53,0,0,1,.87.7,8,8,0,0,1,.89,1.56c1.26,2.35,4,3.42,6.5,4.3l-4.35,1.23c-.92.26-2.06.86-1.89,1.8a4.23,4.23,0,0,0,2.7,2c1.06.29,3-.11,3.76.48.21.15.38.61.51.82.77,1.25,1.53,2.5,2.3,3.74l6.37,10.38c.27.43-.68,5.06-.89,5.52Z"/>
            <path class="cls-5" d="M116.56,66.68l-2.16-3.31-.88-2.56-.47-2.9-2-5.26A36.18,36.18,0,0,1,109.65,49c-.63-2.25-.19-5.21-.14-7.56a10.76,10.76,0,0,1,3,6.12,26.26,26.26,0,0,1,5.53-4.51,27.6,27.6,0,0,0,2.57,5.16c2.3-1.84,2.69-5.59,5.32-6.91a2,2,0,0,1,1.68-.17c.83.37,1.06,1.42,1.18,2.32l.62,4.64,1.31-.62a4.64,4.64,0,0,1,.59,3.54,2,2,0,0,1,1.88,1.06,3.72,3.72,0,0,1,.37,2.21c1.63-1.55,3.61-3.22,5.83-2.85v2.8a1.91,1.91,0,0,1,2.09-.82v1.36l.81-.07.41,1c2.27-.38,4.56-.65,6.86-.83-1.76,1.52-4.1,2.15-6.26,3A39.12,39.12,0,0,0,134,63.36c-1.45,1.1-2.86,2.27-4.23,3.46-.91.79-2.77,3.18-3.92,3.32-.53.06-1.62-.6-2.11-.79l-3.13-1.17C119.83,67.9,117,67.36,116.56,66.68Z"/>
            <path class="cls-5" d="M131,70.81a4,4,0,0,1,.6-.55c1.07-.79,2.39-1.24,3.29-2.26a6.41,6.41,0,0,1,1.24-1.35,2.67,2.67,0,0,1,2.78.29c.82.54,1.46,1.32,2.24,1.91a2.61,2.61,0,0,1,.69.63,2.06,2.06,0,0,1,.22.73,13.52,13.52,0,0,1,.14,2.11,2.1,2.1,0,0,1-.14.86,2.45,2.45,0,0,1-.46.56c-1.5,1.49-3,3.45-5,4.17-1.21.43-2.43.83-3.65,1.25l-3.1-6.34A9.74,9.74,0,0,1,131,70.81Z"/>
          </g>
        </g>
      </g>
    </g>
  </g>
</svg>
